<svg width="385" height="175" viewBox="0 0 385 175" fill="none" xmlns="http://www.w3.org/2000/svg">
<path d="M2 117.93H24.36C30.29 137.78 45.8 150.55 71.13 150.55C92.35 150.55 107.17 138.92 107.17 122.49C107.17 107.43 93.25 98.99 74.32 95.57L58.35 92.6C32.8 87.81 11.13 77.54 11.13 50.17C11.13 24.85 36 5 63.83 5C91.66 5 118.13 22.11 124.97 53.14H102.61C96.68 31.24 80.25 23.71 62.69 23.71C43.98 23.71 32.8 35.8 32.8 48.8C32.8 64.31 46.26 69.79 62.69 72.75L78.89 75.72C106.04 80.74 128.85 93.74 128.85 122.26C128.85 148.27 101.25 169.26 69.99 169.26C38.73 169.26 9.75999 149.87 2.00999 117.93H2Z" fill="white"/>
<path d="M156.21 7.28027H210.05C242.45 7.28027 264.8 25.9903 264.8 49.4803C264.8 64.9903 256.36 78.4503 241.53 84.6103C258.41 90.5403 270.73 104.91 270.73 122.48C270.73 147.57 249.06 166.97 213.01 166.97H156.2V7.28027H156.21ZM212.33 77.0903C228.98 77.0903 243.81 71.8403 243.81 52.0003C243.81 32.1603 228.98 25.5403 212.33 25.5403H176.28V77.1003H212.33V77.0903ZM215.07 148.72C234.01 148.72 248.83 141.88 248.83 122.26C248.83 102.64 233.09 94.8803 215.07 94.8803H176.29V148.72H215.07Z" fill="white"/>
<path d="M283.76 46.06C283.76 23.25 302.7 5 324.82 5C346.94 5 365.88 23.25 365.88 46.06C365.88 68.87 346.94 87.12 324.82 87.12C302.7 87.12 283.76 68.64 283.76 46.06ZM324.82 76.63C341.25 76.63 354.25 63.17 354.25 46.06C354.25 28.95 341.47 15.26 324.82 15.26C308.17 15.26 295.62 28.72 295.62 46.06C295.62 63.4 308.62 76.63 324.82 76.63ZM309.76 25.76H325.27C335.31 25.76 341.92 30.55 341.92 37.62C341.92 42.87 338.27 45.83 334.85 46.97C337.59 47.43 339.18 49.25 339.87 52.9L342.38 66.36H332.34L330.29 56.09C329.61 52.67 328.92 51.98 325.73 51.98H319.8V66.35H309.76V25.74V25.76ZM325.73 43.78C329.38 43.78 331.66 41.95 331.66 38.99C331.66 36.03 329.38 34.43 325.73 34.43H319.8V43.78H325.73Z" fill="white"/>
</svg>
