<svg width="400" height="400" viewBox="0 0 400 400" fill="none" xmlns="http://www.w3.org/2000/svg">
<rect width="400" height="400" fill="white"/>
<path d="M89 223.626H106.152C110.701 238.852 122.598 248.648 142.028 248.648C158.305 248.648 169.673 239.727 169.673 227.124C169.673 215.572 158.996 209.098 144.475 206.474L132.225 204.196C112.626 200.522 96.0034 192.644 96.0034 171.649C96.0034 152.226 115.081 137 136.428 137C157.776 137 178.081 150.125 183.327 173.927H166.176C161.627 157.128 149.024 151.352 135.554 151.352C121.202 151.352 112.626 160.626 112.626 170.598C112.626 182.495 122.951 186.699 135.554 188.969L147.981 191.248C168.807 195.098 186.304 205.07 186.304 226.947C186.304 246.899 165.132 263 141.154 263C117.175 263 94.9525 248.126 89.0077 223.626H89Z" fill="#55349C"/>
<path d="M207.291 138.749H248.59C273.444 138.749 290.588 153.101 290.588 171.12C290.588 183.017 284.114 193.342 272.738 198.067C285.686 202.616 295.136 213.639 295.136 227.116C295.136 246.362 278.514 261.243 250.861 261.243H207.283V138.749H207.291ZM250.339 192.299C263.111 192.299 274.487 188.271 274.487 173.053C274.487 157.834 263.111 152.756 250.339 152.756H222.686V192.306H250.339V192.299ZM252.441 247.244C266.969 247.244 278.338 241.998 278.338 226.947C278.338 211.897 266.264 205.945 252.441 205.945H222.694V247.244H252.441Z" fill="#55349C"/>
<path d="M295 139.5C295 130.334 302.609 123 311.5 123C320.391 123 328 130.334 328 139.5C328 148.666 320.391 156 311.5 156C302.609 156 295 148.574 295 139.5ZM311.5 151.784C318.099 151.784 323.325 146.375 323.325 139.5C323.325 132.625 318.191 127.124 311.5 127.124C304.809 127.124 299.767 132.534 299.767 139.5C299.767 146.466 304.993 151.784 311.5 151.784ZM305.452 131.344H311.684C315.716 131.344 318.375 133.268 318.375 136.111C318.375 138.218 316.91 139.412 315.532 139.867C316.63 140.051 317.273 140.786 317.548 142.251L318.554 147.66H314.522L313.696 143.536C313.42 142.163 313.145 141.887 311.863 141.887H309.48V147.664H305.448V131.348L305.452 131.344ZM311.867 138.586C313.332 138.586 314.251 137.851 314.251 136.662C314.251 135.472 313.332 134.829 311.867 134.829H309.484V138.586H311.867Z" fill="#55349C"/>
</svg>
