<svg width="1609" height="421" viewBox="0 0 1609 421" fill="none" xmlns="http://www.w3.org/2000/svg">
<path d="M127.66 241.32H150.16C156.13 261.3 171.74 274.15 197.23 274.15C218.58 274.15 233.51 262.44 233.51 245.91C233.51 230.76 219.5 222.26 200.45 218.82L184.38 215.84C158.66 211.02 136.85 200.69 136.85 173.13C136.85 147.64 161.88 127.67 189.89 127.67C217.9 127.67 244.54 144.89 251.42 176.12H228.92C222.95 154.08 206.42 146.5 188.74 146.5C169.91 146.5 158.66 158.67 158.66 171.76C158.66 187.37 172.21 192.88 188.74 195.87L205.04 198.85C232.36 203.9 255.32 216.99 255.32 245.69C255.32 271.87 227.54 292.99 196.08 292.99C164.62 292.99 135.46 273.47 127.66 241.33V241.32Z" fill="white"/>
<path d="M272.32 230.99C272.32 195.17 302.4 169 329.26 169C344.41 169 357.73 175.2 366.69 185.07V171.29H385.98V290.69H366.69V276.91C357.74 286.78 344.42 292.98 329.26 292.98C302.4 292.98 272.32 266.8 272.32 230.99ZM330.41 275.3C351.07 275.3 366.69 259.23 366.69 230.99C366.69 202.75 351.08 186.68 330.41 186.68C308.14 186.68 292.52 205.74 292.52 230.99C292.52 256.24 308.13 275.3 330.41 275.3Z" fill="white"/>
<path d="M406.87 171.29H427.76L463.12 273.01L498.71 171.29H518.69L475.98 290.69H448.89L406.87 171.29Z" fill="white"/>
<path d="M525.58 171.29H546.47L581.83 273.01L617.42 171.29H637.4L594.69 290.69H567.6L525.58 171.29Z" fill="white"/>
<path d="M661.51 318.47H662.2C674.83 318.47 681.03 312.27 686.08 299.64L691.13 287.24L642.68 171.29H664.03L701.23 263.13L738.2 171.29H758.87L706.52 297.57C695.27 324.2 685.4 336.6 664.27 336.6H661.52V318.46L661.51 318.47Z" fill="white"/>
<path d="M778.61 129.96H832.8C865.4 129.96 887.91 148.79 887.91 172.44C887.91 188.05 879.41 201.6 864.49 207.8C881.48 213.77 893.88 228.24 893.88 245.91C893.88 271.17 872.07 290.68 835.79 290.68H778.62V129.95L778.61 129.96ZM835.09 200.22C851.85 200.22 866.78 194.94 866.78 174.96C866.78 154.98 851.86 148.33 835.09 148.33H798.81V200.22H835.09ZM837.85 272.32C856.91 272.32 871.83 265.43 871.83 245.69C871.83 225.95 855.99 218.14 837.85 218.14H798.82V272.33H837.85V272.32Z" fill="white"/>
<path d="M912.02 230.99C912.02 195.4 941.64 169 970.11 169C998.58 169 1027.97 195.4 1027.97 230.99C1027.97 266.58 998.58 292.98 970.11 292.98C941.64 292.98 912.02 266.58 912.02 230.99ZM970.11 275.3C992.38 275.3 1007.99 256.24 1007.99 230.99C1007.99 205.74 992.38 186.68 970.11 186.68C947.84 186.68 932.22 205.74 932.22 230.99C932.22 256.24 947.83 275.3 970.11 275.3Z" fill="white"/>
<path d="M1045.19 230.99C1045.19 195.4 1074.81 169 1103.28 169C1131.75 169 1161.14 195.4 1161.14 230.99C1161.14 266.58 1131.75 292.98 1103.28 292.98C1074.81 292.98 1045.19 266.58 1045.19 230.99ZM1103.28 275.3C1125.55 275.3 1141.16 256.24 1141.16 230.99C1141.16 205.74 1125.55 186.68 1103.28 186.68C1081.01 186.68 1065.39 205.74 1065.39 230.99C1065.39 256.24 1081 275.3 1103.28 275.3Z" fill="white"/>
<path d="M1187.55 129.96H1206.84V231.68L1261.03 171.29H1285.83L1240.37 220.66L1286.98 290.69H1264.02L1227.28 234.44L1206.84 256.48V290.69H1187.55V129.96Z" fill="white"/>
<path d="M1290.19 253.49H1310.86C1314.3 267.27 1326.7 275.53 1343.46 275.53C1356.55 275.53 1370.78 270.02 1370.78 256.47C1370.78 245.91 1360.45 241.55 1345.75 239.02L1333.12 236.95C1313.14 233.51 1297.99 223.63 1297.99 205.26C1297.99 183.45 1319.11 168.98 1340.24 168.98C1361.37 168.98 1383.18 183.22 1388.46 206.18H1368.02C1362.97 192.17 1353.55 185.97 1340.24 185.97C1326.93 185.97 1317.74 194.01 1317.74 203.88C1317.74 212.83 1324.63 216.97 1336.8 218.8L1350.12 220.87C1371.01 224.08 1390.53 233.73 1390.53 256.23C1390.53 280.11 1364.58 292.97 1343.46 292.97C1322.34 292.97 1295.24 279.65 1290.19 253.48V253.49Z" fill="white"/>
<path d="M1407.06 168.99C1407.06 146.03 1426.12 127.66 1448.39 127.66C1470.66 127.66 1489.72 146.03 1489.72 168.99C1489.72 191.95 1470.66 210.32 1448.39 210.32C1426.12 210.32 1407.06 191.72 1407.06 168.99ZM1448.39 199.76C1464.92 199.76 1478.01 186.21 1478.01 168.99C1478.01 151.77 1465.15 137.99 1448.39 137.99C1431.63 137.99 1419 151.54 1419 168.99C1419 186.44 1432.09 199.76 1448.39 199.76ZM1433.24 148.56H1448.85C1458.95 148.56 1465.61 153.38 1465.61 160.5C1465.61 165.78 1461.94 168.77 1458.49 169.91C1461.24 170.37 1462.85 172.21 1463.54 175.88L1466.06 189.43H1455.96L1453.89 179.1C1453.2 175.66 1452.51 174.97 1449.3 174.97H1443.33V189.44H1433.23V148.57L1433.24 148.56ZM1449.31 166.7C1452.98 166.7 1455.28 164.86 1455.28 161.88C1455.28 158.9 1452.98 157.29 1449.31 157.29H1443.34V166.7H1449.31Z" fill="white"/>
</svg>
